<svg width="96" height="96" viewBox="0 0 96 96" fill="none" xmlns="http://www.w3.org/2000/svg">
<path d="M63.0785 6.09408C86.2225 14.4218 98.233 39.9346 89.9053 63.0786C81.5776 86.2221 56.0654 98.2331 32.9214 89.9054C9.77734 81.5777 -2.23367 56.0649 6.09401 32.9209C14.4217 9.77741 39.9345 -2.23361 63.0785 6.09408" stroke="black" stroke-width="4.5"/>
<path d="M25.019 39.8676C32.58 34.0478 42.8569 32.0848 52.5012 35.5548C67.5444 40.9681 75.3516 57.5514 69.9384 72.5946C64.5257 87.6383 47.9424 95.445 32.8987 90.0324" stroke="black" stroke-width="4.5"/>
<path d="M71.805 56.5459C64.2443 62.3629 53.9701 64.3239 44.3282 60.8548C34.6868 57.3857 28.0173 49.3276 25.896 40.0282C24.7076 34.8174 24.9468 29.2169 26.8904 23.8151C32.3036 8.77133 48.8869 0.96405 63.9301 6.37732" stroke="black" stroke-width="4.5"/>
</svg>
