<?xml version="1.0" encoding="utf-8"?>
<!-- Generator: Adobe Illustrator 26.0.3, SVG Export Plug-In . SVG Version: 6.00 Build 0)  -->
<svg version="1.1" id="Capa_3" xmlns="http://www.w3.org/2000/svg" xmlns:xlink="http://www.w3.org/1999/xlink" x="0px" y="0px"
	 viewBox="0 0 800 600" style="enable-background:new 0 0 800 600;" xml:space="preserve">
<path d="M400,150c-82.7,0-150,67.3-150,150s67.3,150,150,150s150-67.3,150-150S482.7,150,400,150z M267.7,300
	c0-56.1,35.1-104.2,84.5-123.4c-22,18.5-35.9,46.2-35.9,77.1c0.1,55.6,45.2,100.5,100.7,100.5c17.2,0,34-4.5,48.8-12.8
	c0.7,11-0.8,22.3-4.9,33.4c-15.7,43-63.2,65.2-106.3,49.6l0,0C304,405.8,267.7,357.1,267.7,300z M337.4,277.2
	c21.8-14.4,49.2-17.7,74-8.7c25.6,9.3,43.9,30,51.1,54.3c-21.8,14.4-49.2,17.7-74,8.7C362.9,322.2,344.7,301.5,337.4,277.2z
	 M447.8,423.4c41-34.4,48-95.2,15.2-138.1c-30.8-40.2-85.9-50.7-128.8-26.7c-0.7-11,0.8-22.3,4.9-33.4c15.7-43,63.2-65.2,106.3-49.5
	l0,0c50.7,18.5,87.1,67.3,87.1,124.4C532.3,356.1,497.2,404.2,447.8,423.4z"/>
</svg>
